<svg width="128" height="34" viewBox="0 0 128 34" fill="none" xmlns="http://www.w3.org/2000/svg">
  <g transform="translate(0,3) scale(0.0259)"><path d="M360 337.5L360 562.5L675 562.5L675 697.5L315 697.5C265.294 697.5 225 657.206 225 607.5L225 202.5L1080 202.5L1080 180C1080 80.5888 999.411 5.75079e-05 900 5.31569e-05L180 2.16438e-05C80.5888 2.20589e-05 4.3629e-05 80.5887 3.92892e-05 180L1.47335e-05 742.5L720 742.5L720 517.5L405 517.5L405 382.5L765 382.5C814.706 382.5 855 422.794 855 472.5L855 877.5L8.84007e-06 877.5L7.85784e-06 900C5.75239e-05 999.411 80.5888 1080 180 1080L900 1080C999.411 1080 1080 999.411 1080 900L1080 337.5L360 337.5Z" fill="#1B6AFF"/></g>
  <text x="40" y="24" font-family="Inter, system-ui, -apple-system, sans-serif" font-size="22" font-weight="800" letter-spacing="-0.6" fill="#0a0a16">Shekel</text>
</svg>
